<?xml version="1.0" encoding="UTF-8" standalone="no"?>
<svg
   width="1035.1179mm"
   height="250.95978mm"
   viewBox="0 0 1035.1179 250.95978"
   version="1.1"
   id="svg1277"
   inkscape:version="1.2.1 (9c6d41e4, 2022-07-14)"
   sodipodi:docname="hydroeval-logo-dark.svg"
   xmlns:inkscape="http://www.inkscape.org/namespaces/inkscape"
   xmlns:sodipodi="http://sodipodi.sourceforge.net/DTD/sodipodi-0.dtd"
   xmlns="http://www.w3.org/2000/svg"
   xmlns:svg="http://www.w3.org/2000/svg"
   xmlns:rdf="http://www.w3.org/1999/02/22-rdf-syntax-ns#"
   xmlns:cc="http://creativecommons.org/ns#"
   xmlns:dc="http://purl.org/dc/elements/1.1/">
  <defs
     id="defs1271" />
  <sodipodi:namedview
     id="base"
     pagecolor="#ffffff"
     bordercolor="#666666"
     borderopacity="1.0"
     inkscape:pageopacity="0.0"
     inkscape:pageshadow="2"
     inkscape:zoom="0.15178611"
     inkscape:cx="1222.1145"
     inkscape:cy="668.70416"
     inkscape:document-units="mm"
     inkscape:current-layer="layer1"
     inkscape:document-rotation="0"
     showgrid="false"
     fit-margin-top="30"
     fit-margin-left="30"
     fit-margin-right="30"
     fit-margin-bottom="30"
     inkscape:window-width="1440"
     inkscape:window-height="847"
     inkscape:window-x="0"
     inkscape:window-y="25"
     inkscape:window-maximized="0"
     inkscape:showpageshadow="0"
     inkscape:pagecheckerboard="1"
     inkscape:deskcolor="#d1d1d1" />
  <metadata
     id="metadata1274">
    <rdf:RDF>
      <cc:Work
         rdf:about="">
        <dc:format>image/svg+xml</dc:format>
        <dc:type
           rdf:resource="http://purl.org/dc/dcmitype/StillImage" />
        <dc:title />
      </cc:Work>
    </rdf:RDF>
  </metadata>
  <g
     inkscape:label="Layer 1"
     inkscape:groupmode="layer"
     id="layer1"
     transform="translate(238.0701,-96.1438)">
    <path
       style="color:#000000;font-style:normal;font-variant:normal;font-weight:normal;font-stretch:normal;font-size:50.8px;line-height:1.25;font-family:sans-serif;font-variant-ligatures:normal;font-variant-position:normal;font-variant-caps:normal;font-variant-numeric:normal;font-variant-alternates:normal;font-variant-east-asian:normal;font-feature-settings:normal;font-variation-settings:normal;text-indent:0;text-align:end;text-decoration:none;text-decoration-line:none;text-decoration-style:solid;text-decoration-color:#000000;letter-spacing:normal;word-spacing:normal;text-transform:none;writing-mode:lr-tb;direction:ltr;text-orientation:mixed;dominant-baseline:auto;baseline-shift:baseline;text-anchor:end;white-space:normal;shape-padding:0;shape-margin:0;inline-size:0;clip-rule:nonzero;display:inline;overflow:visible;visibility:visible;isolation:auto;mix-blend-mode:normal;color-interpolation:sRGB;color-interpolation-filters:linearRGB;solid-color:#000000;solid-opacity:1;vector-effect:none;fill:#00b0f0;fill-opacity:1;fill-rule:nonzero;stroke:none;stroke-width:0.264999;stroke-linecap:round;stroke-linejoin:miter;stroke-miterlimit:4;stroke-dasharray:none;stroke-dashoffset:0;stroke-opacity:1;color-rendering:auto;image-rendering:auto;shape-rendering:auto;text-rendering:auto;enable-background:accumulate;stop-color:#000000"
       d="m -185.4302,224.3916 c -8.1588,1.3816 -16.8019,2.8863 -22.6399,3.9579 v 37.0395 c 0.01,2.8467 1.0914,5.5965 3.0339,7.6772 0.6902,0.7538 1.4797,1.4105 2.3476,1.9518 0,0 0.04,0.027 0.054,0.027 a 0.2161354,0.2161354 0 0 0 0.027,0 c 0.5983,0.3619 1.2198,0.6765 1.8732,0.9236 0.3107,0.1215 0.6306,0.2231 0.9493,0.3162 a 0.2161354,0.2161354 0 0 0 0.054,0 c 0.3201,0.095 0.6243,0.1717 0.9498,0.2376 a 0.2161354,0.2161354 0 0 0 0.054,0 h 0.054 c 0.3147,0.054 0.6184,0.1079 0.9493,0.1349 0.3377,0.027 0.677,0.028 1.0025,0.028 1.2751,0 2.5441,-0.2108 3.746,-0.6336 0.1081,-0.027 0.2191,-0.068 0.3163,-0.108 a 0.2161354,0.2161354 0 0 0 0.027,-0.028 h 0.027 l 0.054,-0.027 c 0.013,-0.011 0.027,-0.027 0.027,-0.027 0.2701,-0.108 0.5549,-0.2352 0.817,-0.3688 a 0.2161354,0.2161354 0 0 0 0.027,0 h 0.027 c 0,0 -0.01,-0.027 0,-0.027 l 0.054,-0.027 c 0.2674,-0.1379 0.5337,-0.2879 0.7917,-0.4488 h 0.027 0.027 c 0,0 0.012,-0.013 0.027,-0.027 l 0.027,-0.027 c 0.2553,-0.1632 0.4972,-0.3432 0.739,-0.5281 h 0.027 v -0.027 h 0.027 c 0,0 0.01,-0.013 0.027,-0.027 0.2444,-0.1919 0.4838,-0.3927 0.7121,-0.6062 0.01,0 0.054,-0.028 0.054,-0.028 0.01,0 0.054,-0.027 0.054,-0.027 0.2444,-0.231 0.4887,-0.4879 0.7115,-0.739 0.9401,-1.0388 1.664,-2.2265 2.1638,-3.5346 0.5037,-1.2861 0.7803,-2.6553 0.7911,-4.0365 0,0 -0.028,-20.2496 -0.037,-40.9929 z"
       id="path1977" />
    <path
       style="color:#000000;font-style:normal;font-variant:normal;font-weight:normal;font-stretch:normal;font-size:50.8px;line-height:1.25;font-family:sans-serif;font-variant-ligatures:normal;font-variant-position:normal;font-variant-caps:normal;font-variant-numeric:normal;font-variant-alternates:normal;font-variant-east-asian:normal;font-feature-settings:normal;font-variation-settings:normal;text-indent:0;text-align:end;text-decoration:none;text-decoration-line:none;text-decoration-style:solid;text-decoration-color:#000000;letter-spacing:normal;word-spacing:normal;text-transform:none;writing-mode:lr-tb;direction:ltr;text-orientation:mixed;dominant-baseline:auto;baseline-shift:baseline;text-anchor:end;white-space:normal;shape-padding:0;shape-margin:0;inline-size:0;clip-rule:nonzero;display:inline;overflow:visible;visibility:visible;isolation:auto;mix-blend-mode:normal;color-interpolation:sRGB;color-interpolation-filters:linearRGB;solid-color:#000000;solid-opacity:1;vector-effect:none;fill:#00b0f0;fill-opacity:1;fill-rule:nonzero;stroke:none;stroke-width:0.264999;stroke-linecap:round;stroke-linejoin:miter;stroke-miterlimit:4;stroke-dasharray:none;stroke-dashoffset:0;stroke-opacity:1;color-rendering:auto;image-rendering:auto;shape-rendering:auto;text-rendering:auto;enable-background:accumulate;stop-color:#000000"
       d="m -118.4451,216.1405 c -8.1444,0.5202 -15.72,1.1711 -22.8674,1.9233 0.5504,5.3583 0.9849,10.9924 1.2155,16.2952 0.7159,16.457 0.4738,30.8395 0.4738,30.8395 -0.108,6.2376 4.8693,11.375 11.1068,11.4758 6.2274,0.095 11.3752,-4.8792 11.4758,-11.1064 0,0 0.2756,-14.9156 -0.4754,-32.1583 -0.2483,-5.7099 -0.4986,-11.5411 -0.9291,-17.2691 z"
       id="path1973" />
    <path
       style="color:#000000;font-style:normal;font-variant:normal;font-weight:normal;font-stretch:normal;font-size:50.8px;line-height:1.25;font-family:sans-serif;font-variant-ligatures:normal;font-variant-position:normal;font-variant-caps:normal;font-variant-numeric:normal;font-variant-alternates:normal;font-variant-east-asian:normal;font-feature-settings:normal;font-variation-settings:normal;text-indent:0;text-align:end;text-decoration:none;text-decoration-line:none;text-decoration-style:solid;text-decoration-color:#000000;letter-spacing:normal;word-spacing:normal;text-transform:none;writing-mode:lr-tb;direction:ltr;text-orientation:mixed;dominant-baseline:auto;baseline-shift:baseline;text-anchor:end;white-space:normal;shape-padding:0;shape-margin:0;inline-size:0;clip-rule:nonzero;display:inline;overflow:visible;visibility:visible;isolation:auto;mix-blend-mode:normal;color-interpolation:sRGB;color-interpolation-filters:linearRGB;solid-color:#000000;solid-opacity:1;vector-effect:none;fill:#00b0f0;fill-opacity:1;fill-rule:nonzero;stroke:none;stroke-width:0.264999;stroke-linecap:round;stroke-linejoin:miter;stroke-miterlimit:4;stroke-dasharray:none;stroke-dashoffset:0;stroke-opacity:1;color-rendering:auto;image-rendering:auto;shape-rendering:auto;text-rendering:auto;enable-background:accumulate;stop-color:#000000"
       d="m -3.355,218.1324 c -7.0741,-0.7535 -14.5689,-1.4068 -22.6162,-1.9328 0.01,17.0556 0.01,35.5251 -0.036,43.9621 v 0.027 0.027 1.8991 h -5.9887 c -4.8955,0 -10.6597,0.041 -16.0926,-0.6588 -4.5235,-0.5821 -8.3246,-1.4703 -11.3171,-2.9813 -2.9925,-1.5108 -5.1899,-3.6303 -6.5428,-6.6744 -0.4795,-1.0779 -1.0158,-3.1551 -1.5565,-5.883 -0.5403,-2.7276 -1.0791,-6.1222 -1.5828,-9.8928 -0.8642,-6.4674 -1.6106,-14.0303 -2.0319,-21.2415 -0.5335,0 -1.0529,-0.01 -1.5906,-0.01 -7.395,0 -14.3729,0.094 -21.0034,0.2672 0.7179,16.3822 1.6442,33.4513 7.1799,45.9074 7.0554,15.875 23.1303,21.2971 35.5617,22.8988 7.4755,0.9655 14.3544,0.8438 18.9942,0.8438 h 6.0414 v 2.9549 c 0,1.3467 -0.1215,2.142 -0.2904,2.6381 -0.1688,0.4956 -0.3795,0.7128 -0.6335,1.002 -0.4605,0.5268 -1.542,1.2928 -3.6143,1.9259 -4.1351,1.2645 -10.8857,1.2398 -15.8812,1.2398 -0.3593,0 -1.2038,-0.081 -2.3482,-0.2373 -1.1441,-0.1526 -2.6011,-0.3646 -4.2209,-0.6334 -3.2394,-0.5376 -7.1387,-1.2848 -10.5787,-2.0579 -6.8864,-1.5492 -12.7682,-3.1128 -12.7682,-3.1128 -6.0283,-1.5897 -12.2091,2.0171 -13.7976,8.0459 -1.5908,6.0201 2.0025,12.1968 8.0202,13.797 0,0 6.2241,1.642 13.5862,3.298 7.3559,1.6545 15.0146,3.4825 22.1072,3.4825 3.7716,0 12.9496,0.686 22.4503,-2.2164 4.7521,-1.4518 9.9316,-3.9598 14.0348,-8.6527 4.1089,-4.6993 6.5159,-11.4221 6.5159,-18.5198 z"
       id="path1971" />
    <path
       style="color:#000000;font-style:normal;font-variant:normal;font-weight:normal;font-stretch:normal;font-size:50.8px;line-height:1.25;font-family:sans-serif;font-variant-ligatures:normal;font-variant-position:normal;font-variant-caps:normal;font-variant-numeric:normal;font-variant-alternates:normal;font-variant-east-asian:normal;font-feature-settings:normal;font-variation-settings:normal;text-indent:0;text-align:end;text-decoration:none;text-decoration-line:none;text-decoration-style:solid;text-decoration-color:#000000;letter-spacing:normal;word-spacing:normal;text-transform:none;writing-mode:lr-tb;direction:ltr;text-orientation:mixed;dominant-baseline:auto;baseline-shift:baseline;text-anchor:end;white-space:normal;shape-padding:0;shape-margin:0;inline-size:0;clip-rule:nonzero;display:inline;overflow:visible;visibility:visible;isolation:auto;mix-blend-mode:normal;color-interpolation:sRGB;color-interpolation-filters:linearRGB;solid-color:#000000;solid-opacity:1;vector-effect:none;fill:#00b0f0;fill-opacity:1;fill-rule:nonzero;stroke:none;stroke-width:0.264999;stroke-linecap:round;stroke-linejoin:miter;stroke-miterlimit:4;stroke-dasharray:none;stroke-dashoffset:0;stroke-opacity:1;color-rendering:auto;image-rendering:auto;shape-rendering:auto;text-rendering:auto;enable-background:accumulate;stop-color:#000000"
       d="m 115.6817,236.5069 c -7.8218,-0.8361 -15.1536,-1.7849 -22.1496,-2.8059 0,5.1329 0.01,10.2661 0.018,15.399 -13.5061,5.7399 -29.6467,7.9899 -42.9147,0.698 -6.7562,-5.0411 -7.0695,-14.4444 -7.8729,-22.1417 -0.032,-0.9144 -0.064,-1.8364 -0.097,-2.7559 -7.2472,-1.297 -14.6013,-2.5521 -22.317,-3.7129 0.01,1.0769 0.02,2.1633 0.026,3.2282 0.3218,14.4656 2.8016,30.6425 14.4183,40.5985 13.3046,11.531 32.4865,13.3892 49.2052,10.3269 3.9293,-0.8265 7.8692,-1.8446 11.7151,-3.1329 2.9427,3.8068 8.3956,5.7158 12.9956,3.687 5.1197,-1.8751 7.6587,-7.5883 6.9784,-12.7805 -0.01,-8.8691 -0.01,-17.7384 -0.01,-26.6078 z"
       id="path1967" />
    <path
       style="color:#000000;font-style:normal;font-variant:normal;font-weight:normal;font-stretch:normal;font-size:50.8px;line-height:1.25;font-family:sans-serif;font-variant-ligatures:normal;font-variant-position:normal;font-variant-caps:normal;font-variant-numeric:normal;font-variant-alternates:normal;font-variant-east-asian:normal;font-feature-settings:normal;font-variation-settings:normal;text-indent:0;text-align:end;text-decoration:none;text-decoration-line:none;text-decoration-style:solid;text-decoration-color:#000000;letter-spacing:normal;word-spacing:normal;text-transform:none;writing-mode:lr-tb;direction:ltr;text-orientation:mixed;dominant-baseline:auto;baseline-shift:baseline;text-anchor:end;white-space:normal;shape-padding:0;shape-margin:0;inline-size:0;clip-rule:nonzero;display:inline;overflow:visible;visibility:visible;isolation:auto;mix-blend-mode:normal;color-interpolation:sRGB;color-interpolation-filters:linearRGB;solid-color:#000000;solid-opacity:1;vector-effect:none;fill:#00b0f0;fill-opacity:1;fill-rule:nonzero;stroke:none;stroke-width:0.264999;stroke-linecap:round;stroke-linejoin:miter;stroke-miterlimit:4;stroke-dasharray:none;stroke-dashoffset:0;stroke-opacity:1;color-rendering:auto;image-rendering:auto;shape-rendering:auto;text-rendering:auto;enable-background:accumulate;stop-color:#000000"
       d="m 167.4367,239.7962 c -7.8099,-0.1923 -15.18,-0.4919 -22.1522,-0.8863 v 26.6951 a 11.0755,11.0755 0 0 0 11.0758,11.0762 11.0755,11.0755 0 0 0 11.0764,-11.0762 z"
       id="path1965" />
    <path
       style="color:#000000;font-style:normal;font-variant:normal;font-weight:normal;font-stretch:normal;font-size:50.8px;line-height:1.25;font-family:sans-serif;font-variant-ligatures:normal;font-variant-position:normal;font-variant-caps:normal;font-variant-numeric:normal;font-variant-alternates:normal;font-variant-east-asian:normal;font-feature-settings:normal;font-variation-settings:normal;text-indent:0;text-align:end;text-decoration:none;text-decoration-line:none;text-decoration-style:solid;text-decoration-color:#000000;letter-spacing:normal;word-spacing:normal;text-transform:none;writing-mode:lr-tb;direction:ltr;text-orientation:mixed;dominant-baseline:auto;baseline-shift:baseline;text-anchor:end;white-space:normal;shape-padding:0;shape-margin:0;inline-size:0;clip-rule:nonzero;display:inline;overflow:visible;visibility:visible;isolation:auto;mix-blend-mode:normal;color-interpolation:sRGB;color-interpolation-filters:linearRGB;solid-color:#000000;solid-opacity:1;vector-effect:none;fill:#00b0f0;fill-opacity:1;fill-rule:nonzero;stroke:none;stroke-width:0.264999;stroke-linecap:round;stroke-linejoin:miter;stroke-miterlimit:4;stroke-dasharray:none;stroke-dashoffset:0;stroke-opacity:1;color-rendering:auto;image-rendering:auto;shape-rendering:auto;text-rendering:auto;enable-background:accumulate;stop-color:#000000"
       d="m 327.4703,225.8146 c -2.5756,0.4685 -5.1482,0.9395 -7.7256,1.4128 -4.874,0.8949 -9.7845,1.7915 -14.78,2.6747 -0.6367,8.5498 -1.9592,14.5431 -3.8489,17.6734 -2.7319,4.5254 -6.265,6.9551 -20.223,6.9551 -13.9581,0 -17.4926,-2.4297 -20.2246,-6.9551 -1.3392,-2.2183 -2.3916,-5.8806 -3.1187,-10.8643 -7.0336,0.7273 -14.4632,1.3634 -22.3986,1.8788 0.931,7.4358 2.8017,14.2184 6.5546,20.4351 7.114,11.784 21.3704,17.6561 39.1873,17.6561 17.8168,0 32.0738,-5.8721 39.1878,-17.6561 5.8012,-9.61 7.1056,-20.5714 7.3897,-33.2105 z"
       id="path1961" />
    <path
       style="color:#000000;font-style:normal;font-variant:normal;font-weight:normal;font-stretch:normal;font-size:50.8px;line-height:1.25;font-family:sans-serif;font-variant-ligatures:normal;font-variant-position:normal;font-variant-caps:normal;font-variant-numeric:normal;font-variant-alternates:normal;font-variant-east-asian:normal;font-feature-settings:normal;font-variation-settings:normal;text-indent:0;text-align:end;text-decoration:none;text-decoration-line:none;text-decoration-style:solid;text-decoration-color:#000000;letter-spacing:normal;word-spacing:normal;text-transform:none;writing-mode:lr-tb;direction:ltr;text-orientation:mixed;dominant-baseline:auto;baseline-shift:baseline;text-anchor:end;white-space:normal;shape-padding:0;shape-margin:0;inline-size:0;clip-rule:nonzero;display:inline;overflow:visible;visibility:visible;isolation:auto;mix-blend-mode:normal;color-interpolation:sRGB;color-interpolation-filters:linearRGB;solid-color:#000000;solid-opacity:1;vector-effect:none;fill:#00b0f0;fill-opacity:1;fill-rule:nonzero;stroke:none;stroke-width:0.264999;stroke-linecap:round;stroke-linejoin:miter;stroke-miterlimit:4;stroke-dasharray:none;stroke-dashoffset:0;stroke-opacity:1;color-rendering:auto;image-rendering:auto;shape-rendering:auto;text-rendering:auto;enable-background:accumulate;stop-color:#000000"
       d="m 443.271,214.7926 c -40.4394,0.2135 -68.4284,3.2165 -93.0941,7.1141 0.1217,14.2981 1.0567,26.534 7.445,37.1163 7.114,11.784 21.3688,17.6582 39.1858,17.6582 17.8169,0 32.0731,-5.874 39.1862,-17.6582 a 11.0755,11.0755 0 0 0 -3.7574,-15.207 11.0755,11.0755 0 0 0 -15.2042,3.7579 c -2.732,4.5254 -6.2666,6.9551 -20.2246,6.9551 -13.958,0 -17.4907,-2.4297 -20.2226,-6.9551 -2.0209,-3.3475 -3.383,-10.0034 -3.961,-19.5255 h 58.1887 c 3.832,0 7.6228,-2.4429 9.2454,-4.445 1.6225,-2.0026 2.0898,-3.5295 2.4531,-4.7543 0.4853,-1.6356 0.6684,-2.9038 0.7597,-4.0565 z"
       id="path1957" />
    <path
       style="color:#000000;font-style:normal;font-variant:normal;font-weight:normal;font-stretch:normal;font-size:50.8px;line-height:1.25;font-family:sans-serif;font-variant-ligatures:normal;font-variant-position:normal;font-variant-caps:normal;font-variant-numeric:normal;font-variant-alternates:normal;font-variant-east-asian:normal;font-feature-settings:normal;font-variation-settings:normal;text-indent:0;text-align:end;text-decoration:none;text-decoration-line:none;text-decoration-style:solid;text-decoration-color:#000000;letter-spacing:normal;word-spacing:normal;text-transform:none;writing-mode:lr-tb;direction:ltr;text-orientation:mixed;dominant-baseline:auto;baseline-shift:baseline;text-anchor:end;white-space:normal;shape-padding:0;shape-margin:0;inline-size:0;clip-rule:nonzero;display:inline;overflow:visible;visibility:visible;isolation:auto;mix-blend-mode:normal;color-interpolation:sRGB;color-interpolation-filters:linearRGB;solid-color:#000000;solid-opacity:1;vector-effect:none;fill:#00b0f0;fill-opacity:1;fill-rule:nonzero;stroke:none;stroke-width:0.264999;stroke-linecap:round;stroke-linejoin:miter;stroke-miterlimit:4;stroke-dasharray:none;stroke-dashoffset:0;stroke-opacity:1;color-rendering:auto;image-rendering:auto;shape-rendering:auto;text-rendering:auto;enable-background:accumulate;stop-color:#000000"
       d="m 549.2733,222.4943 c -7.0764,-1.1567 -14.3996,-2.245 -22.1831,-3.2205 -1.8813,8.0661 -4.0656,15.2934 -6.3635,19.9001 -2.3056,4.6223 -4.6091,9.479 -6.7484,12.4473 -1.863,2.585 -2.602,2.8742 -2.6913,2.906 -0.09,-0.032 -0.8297,-0.3231 -2.6913,-2.906 -2.1392,-2.9683 -4.4424,-7.825 -6.7479,-12.4473 -2.5856,-5.1832 -5.0273,-13.6808 -7.0539,-22.9634 -7.1797,-0.471 -14.8083,-0.8388 -22.9795,-1.0838 2.2311,12.0317 5.3483,24.1859 10.2108,33.9339 1.997,4.0037 4.5497,9.8917 8.6,15.5117 4.0503,5.6203 10.9153,12.1095 20.6618,12.1095 9.7466,0 16.612,-6.4892 20.6623,-12.1095 4.0503,-5.62 6.6024,-11.508 8.5994,-15.5117 3.8691,-7.7563 6.6325,-17.0371 8.7246,-26.5663 z"
       id="path1955" />
    <path
       style="color:#000000;font-style:normal;font-variant:normal;font-weight:normal;font-stretch:normal;font-size:50.8px;line-height:1.25;font-family:sans-serif;font-variant-ligatures:normal;font-variant-position:normal;font-variant-caps:normal;font-variant-numeric:normal;font-variant-alternates:normal;font-variant-east-asian:normal;font-feature-settings:normal;font-variation-settings:normal;text-indent:0;text-align:end;text-decoration:none;text-decoration-line:none;text-decoration-style:solid;text-decoration-color:#000000;letter-spacing:normal;word-spacing:normal;text-transform:none;writing-mode:lr-tb;direction:ltr;text-orientation:mixed;dominant-baseline:auto;baseline-shift:baseline;text-anchor:end;white-space:normal;shape-padding:0;shape-margin:0;inline-size:0;clip-rule:nonzero;display:inline;overflow:visible;visibility:visible;isolation:auto;mix-blend-mode:normal;color-interpolation:sRGB;color-interpolation-filters:linearRGB;solid-color:#000000;solid-opacity:1;vector-effect:none;fill:#00b0f0;fill-opacity:1;fill-rule:nonzero;stroke:none;stroke-width:0.264999;stroke-linecap:round;stroke-linejoin:miter;stroke-miterlimit:4;stroke-dasharray:none;stroke-dashoffset:0;stroke-opacity:1;color-rendering:auto;image-rendering:auto;shape-rendering:auto;text-rendering:auto;enable-background:accumulate;stop-color:#000000"
       d="m 670.855,239.1723 c -8.3157,-0.4069 -16.0842,-0.9453 -23.4218,-1.5848 -0.7203,4.5341 -1.7235,7.9028 -2.9823,9.988 -2.732,4.5254 -6.2665,6.9551 -20.2246,6.9551 -13.9581,0 -17.491,-2.4297 -20.223,-6.9551 -1.7664,-2.926 -3.0345,-8.3648 -3.713,-16.0436 -7.7704,-1.294 -15.2188,-2.6495 -22.5914,-4.0023 0.3671,11.9163 1.8033,22.3245 7.3396,31.4955 7.114,11.784 21.3709,17.6561 39.1878,17.6561 9.9872,0 18.8543,-1.8462 25.9731,-5.5432 a 11.07555,11.07555 0 0 0 9.5814,5.5194 11.07555,11.07555 0 0 0 11.0742,-11.0757 z"
       id="path1951" />
    <path
       style="color:#000000;font-style:normal;font-variant:normal;font-weight:normal;font-stretch:normal;font-size:50.8px;line-height:1.25;font-family:sans-serif;font-variant-ligatures:normal;font-variant-position:normal;font-variant-caps:normal;font-variant-numeric:normal;font-variant-alternates:normal;font-variant-east-asian:normal;font-feature-settings:normal;font-variation-settings:normal;text-indent:0;text-align:end;text-decoration:none;text-decoration-line:none;text-decoration-style:solid;text-decoration-color:#000000;letter-spacing:normal;word-spacing:normal;text-transform:none;writing-mode:lr-tb;direction:ltr;text-orientation:mixed;dominant-baseline:auto;baseline-shift:baseline;text-anchor:end;white-space:normal;shape-padding:0;shape-margin:0;inline-size:0;clip-rule:nonzero;display:inline;overflow:visible;visibility:visible;isolation:auto;mix-blend-mode:normal;color-interpolation:sRGB;color-interpolation-filters:linearRGB;solid-color:#000000;solid-opacity:1;vector-effect:none;fill:#00b0f0;fill-opacity:1;fill-rule:nonzero;stroke:none;stroke-width:0.264999;stroke-linecap:round;stroke-linejoin:miter;stroke-miterlimit:4;stroke-dasharray:none;stroke-dashoffset:0;stroke-opacity:1;color-rendering:auto;image-rendering:auto;shape-rendering:auto;text-rendering:auto;enable-background:accumulate;stop-color:#000000"
       d="m 717.2294,239.9904 c -2.9534,0.031 -5.9514,0.051 -9.032,0.051 -4.5149,0 -8.8737,-0.038 -13.1186,-0.1043 v 5.1557 c 0,12.7217 6.6867,23.0143 14.7521,27.342 8.0654,4.3278 15.9382,4.2463 20.744,4.2463 6.4019,0 12.835,-1.4311 18.4299,-2.727 5.5948,-1.2957 10.0624,-2.5972 10.0624,-2.5972 a 11.07555,11.07555 0 0 0 7.5391,-13.7305 11.07555,11.07555 0 0 0 -13.7305,-7.5391 c 0,0 -3.9208,1.1407 -8.8692,2.2868 -4.9484,1.1462 -11.213,2.1564 -13.4317,2.1564 -3.9854,0 -8.3228,-0.5702 -10.2697,-1.6148 -1.9468,-1.0448 -3.0758,-1.0083 -3.0758,-7.8229 z"
       id="path1949" />
    <path
       style="color:#000000;font-style:normal;font-variant:normal;font-weight:normal;font-stretch:normal;font-size:50.8px;line-height:1.25;font-family:sans-serif;font-variant-ligatures:normal;font-variant-position:normal;font-variant-caps:normal;font-variant-numeric:normal;font-variant-alternates:normal;font-variant-east-asian:normal;font-feature-settings:normal;font-variation-settings:normal;text-indent:0;text-align:end;text-decoration:none;text-decoration-line:none;text-decoration-style:solid;text-decoration-color:#000000;letter-spacing:normal;word-spacing:normal;text-transform:none;writing-mode:lr-tb;direction:ltr;text-orientation:mixed;dominant-baseline:auto;baseline-shift:baseline;text-anchor:end;white-space:normal;shape-padding:0;shape-margin:0;inline-size:0;clip-rule:nonzero;display:inline;overflow:visible;visibility:visible;isolation:auto;mix-blend-mode:normal;color-interpolation:sRGB;color-interpolation-filters:linearRGB;solid-color:#000000;solid-opacity:1;vector-effect:none;fill:#b4b4b4;fill-opacity:1;fill-rule:nonzero;stroke:none;stroke-width:0.264999;stroke-linecap:round;stroke-linejoin:miter;stroke-miterlimit:4;stroke-dasharray:none;stroke-dashoffset:0;stroke-opacity:1;color-rendering:auto;image-rendering:auto;shape-rendering:auto;text-rendering:auto;enable-background:accumulate;stop-color:#000000"
       d="m 695.0788,217.7873 c 4.2336,0.066 8.5906,0.1045 13.1186,0.1045 3.0864,0 6.0842,-0.021 9.032,-0.051 v -80.1944 a 11.07555,11.07555 0 0 0 -11.0742,-11.076 11.07555,11.07555 0 0 0 -11.0764,11.076 z"
       id="path1945" />
    <path
       style="color:#000000;font-style:normal;font-variant:normal;font-weight:normal;font-stretch:normal;font-size:50.8px;line-height:1.25;font-family:sans-serif;font-variant-ligatures:normal;font-variant-position:normal;font-variant-caps:normal;font-variant-numeric:normal;font-variant-alternates:normal;font-variant-east-asian:normal;font-feature-settings:normal;font-variation-settings:normal;text-indent:0;text-align:end;text-decoration:none;text-decoration-line:none;text-decoration-style:solid;text-decoration-color:#000000;letter-spacing:normal;word-spacing:normal;text-transform:none;writing-mode:lr-tb;direction:ltr;text-orientation:mixed;dominant-baseline:auto;baseline-shift:baseline;text-anchor:end;white-space:normal;shape-padding:0;shape-margin:0;inline-size:0;clip-rule:nonzero;display:inline;overflow:visible;visibility:visible;isolation:auto;mix-blend-mode:normal;color-interpolation:sRGB;color-interpolation-filters:linearRGB;solid-color:#000000;solid-opacity:1;vector-effect:none;fill:#b4b4b4;fill-opacity:1;fill-rule:nonzero;stroke:none;stroke-width:0.264999;stroke-linecap:round;stroke-linejoin:miter;stroke-miterlimit:4;stroke-dasharray:none;stroke-dashoffset:0;stroke-opacity:1;color-rendering:auto;image-rendering:auto;shape-rendering:auto;text-rendering:auto;enable-background:accumulate;stop-color:#000000"
       d="m 577.7424,205.018 c 0.7673,0.1407 1.5389,0.2818 2.3047,0.4223 6.5869,1.2094 13.1299,2.4119 19.8272,3.5663 0.4504,-11.2173 1.8928,-18.9317 4.129,-22.6359 2.732,-4.5257 6.265,-6.9551 20.223,-6.9551 13.958,0 17.4926,2.4294 20.2246,6.9551 2.5366,4.2018 4.0498,13.5646 4.2535,27.3476 v 1.7751 c 6.9409,0.6109 14.2959,1.125 22.178,1.5182 0,-0.013 0,-0.024 0,-0.037 0,-1.9881 -0.01,-3.9357 -0.027,-5.8478 v -42.7855 a 11.07555,11.07555 0 0 0 -11.0742,-11.0757 11.07555,11.07555 0 0 0 -9.5927,5.5387 c -7.117,-3.6938 -15.9799,-5.5387 -25.9618,-5.5387 -17.8169,0 -32.0738,5.8734 -39.1878,17.6577 -5.3194,8.8117 -6.8581,18.7592 -7.2961,30.0948 z"
       id="path1941" />
    <path
       style="color:#000000;font-style:normal;font-variant:normal;font-weight:normal;font-stretch:normal;font-size:50.8px;line-height:1.25;font-family:sans-serif;font-variant-ligatures:normal;font-variant-position:normal;font-variant-caps:normal;font-variant-numeric:normal;font-variant-alternates:normal;font-variant-east-asian:normal;font-feature-settings:normal;font-variation-settings:normal;text-indent:0;text-align:end;text-decoration:none;text-decoration-line:none;text-decoration-style:solid;text-decoration-color:#000000;letter-spacing:normal;word-spacing:normal;text-transform:none;writing-mode:lr-tb;direction:ltr;text-orientation:mixed;dominant-baseline:auto;baseline-shift:baseline;text-anchor:end;white-space:normal;shape-padding:0;shape-margin:0;inline-size:0;clip-rule:nonzero;display:inline;overflow:visible;visibility:visible;isolation:auto;mix-blend-mode:normal;color-interpolation:sRGB;color-interpolation-filters:linearRGB;solid-color:#000000;solid-opacity:1;vector-effect:none;fill:#b4b4b4;fill-opacity:1;fill-rule:nonzero;stroke:none;stroke-width:0.264999;stroke-linecap:round;stroke-linejoin:miter;stroke-miterlimit:4;stroke-dasharray:none;stroke-dashoffset:0;stroke-opacity:1;color-rendering:auto;image-rendering:auto;shape-rendering:auto;text-rendering:auto;enable-background:accumulate;stop-color:#000000"
       d="m 531.1736,197.4919 c 7.6992,0.9803 14.9513,2.0606 21.9227,3.1967 0.087,-0.6048 0.1755,-1.2136 0.2594,-1.8119 2.3304,-16.6139 3.1735,-30.2651 3.1735,-30.2651 a 11.07555,11.07555 0 0 0 -10.3689,-11.7404 11.07555,11.07555 0 0 0 -11.7383,10.3693 c 0,0 -0.8006,12.8678 -3.0019,28.5605 -0.078,0.5574 -0.1637,1.1263 -0.2465,1.6909 z"
       id="path1937" />
    <path
       style="color:#000000;font-style:normal;font-variant:normal;font-weight:normal;font-stretch:normal;font-size:50.8px;line-height:1.25;font-family:sans-serif;font-variant-ligatures:normal;font-variant-position:normal;font-variant-caps:normal;font-variant-numeric:normal;font-variant-alternates:normal;font-variant-east-asian:normal;font-feature-settings:normal;font-variation-settings:normal;text-indent:0;text-align:end;text-decoration:none;text-decoration-line:none;text-decoration-style:solid;text-decoration-color:#000000;letter-spacing:normal;word-spacing:normal;text-transform:none;writing-mode:lr-tb;direction:ltr;text-orientation:mixed;dominant-baseline:auto;baseline-shift:baseline;text-anchor:end;white-space:normal;shape-padding:0;shape-margin:0;inline-size:0;clip-rule:nonzero;display:inline;overflow:visible;visibility:visible;isolation:auto;mix-blend-mode:normal;color-interpolation:sRGB;color-interpolation-filters:linearRGB;solid-color:#000000;solid-opacity:1;vector-effect:none;fill:#b4b4b4;fill-opacity:1;fill-rule:nonzero;stroke:none;stroke-width:0.264999;stroke-linecap:round;stroke-linejoin:miter;stroke-miterlimit:4;stroke-dasharray:none;stroke-dashoffset:0;stroke-opacity:1;color-rendering:auto;image-rendering:auto;shape-rendering:auto;text-rendering:auto;enable-background:accumulate;stop-color:#000000"
       d="m 468.4224,192.8802 c 7.9285,0.1993 15.3953,0.5101 22.4607,0.9173 -1.9921,-14.7658 -2.7286,-26.557 -2.7286,-26.557 a 11.07555,11.07555 0 0 0 -11.1352,-10.3888 11.07555,11.07555 0 0 0 -0.6051,0.019 11.07555,11.07555 0 0 0 -10.3694,11.7403 c 0,0 0.6481,10.4897 2.3776,24.2687 z"
       id="path1933" />
    <path
       style="color:#000000;font-style:normal;font-variant:normal;font-weight:normal;font-stretch:normal;font-size:50.8px;line-height:1.25;font-family:sans-serif;font-variant-ligatures:normal;font-variant-position:normal;font-variant-caps:normal;font-variant-numeric:normal;font-variant-alternates:normal;font-variant-east-asian:normal;font-feature-settings:normal;font-variation-settings:normal;text-indent:0;text-align:end;text-decoration:none;text-decoration-line:none;text-decoration-style:solid;text-decoration-color:#000000;letter-spacing:normal;word-spacing:normal;text-transform:none;writing-mode:lr-tb;direction:ltr;text-orientation:mixed;dominant-baseline:auto;baseline-shift:baseline;text-anchor:end;white-space:normal;shape-padding:0;shape-margin:0;inline-size:0;clip-rule:nonzero;display:inline;overflow:visible;visibility:visible;isolation:auto;mix-blend-mode:normal;color-interpolation:sRGB;color-interpolation-filters:linearRGB;solid-color:#000000;solid-opacity:1;vector-effect:none;fill:#b4b4b4;fill-opacity:1;fill-rule:nonzero;stroke:none;stroke-width:0.264999;stroke-linecap:round;stroke-linejoin:miter;stroke-miterlimit:4;stroke-dasharray:none;stroke-dashoffset:0;stroke-opacity:1;color-rendering:auto;image-rendering:auto;shape-rendering:auto;text-rendering:auto;enable-background:accumulate;stop-color:#000000"
       d="m 350.6627,199.4382 c 7.242,-1.0943 14.8334,-2.1148 22.9433,-3.0165 0.7178,-4.5704 1.7237,-7.9566 2.9869,-10.0489 2.732,-4.5257 6.2644,-6.9551 20.2225,-6.9551 v 0 c 13.958,0 17.4927,2.4291 20.2246,6.9546 0.6831,1.1313 1.3266,2.5688 1.8908,4.4008 0.2223,0.7215 0.4305,1.5049 0.6243,2.345 7.086,-0.2537 14.5458,-0.4167 22.4539,-0.4702 -0.4657,-2.8823 -1.0795,-5.6798 -1.9172,-8.3989 -0.9985,-3.2419 -2.3194,-6.3823 -4.0979,-9.3282 -7.1131,-11.7845 -21.3692,-17.6585 -39.1862,-17.6585 h 0.01 c -17.817,0 -32.0712,5.874 -39.1852,17.6583 -4.4272,7.334 -6.234,15.4596 -6.9675,24.5166 z"
       id="path1929" />
    <path
       style="color:#000000;font-style:normal;font-variant:normal;font-weight:normal;font-stretch:normal;font-size:50.8px;line-height:1.25;font-family:sans-serif;font-variant-ligatures:normal;font-variant-position:normal;font-variant-caps:normal;font-variant-numeric:normal;font-variant-alternates:normal;font-variant-east-asian:normal;font-feature-settings:normal;font-variation-settings:normal;text-indent:0;text-align:end;text-decoration:none;text-decoration-line:none;text-decoration-style:solid;text-decoration-color:#000000;letter-spacing:normal;word-spacing:normal;text-transform:none;writing-mode:lr-tb;direction:ltr;text-orientation:mixed;dominant-baseline:auto;baseline-shift:baseline;text-anchor:end;white-space:normal;shape-padding:0;shape-margin:0;inline-size:0;clip-rule:nonzero;display:inline;overflow:visible;visibility:visible;isolation:auto;mix-blend-mode:normal;color-interpolation:sRGB;color-interpolation-filters:linearRGB;solid-color:#000000;solid-opacity:1;vector-effect:none;fill:#b4b4b4;fill-opacity:1;fill-rule:nonzero;stroke:none;stroke-width:0.264999;stroke-linecap:round;stroke-linejoin:miter;stroke-miterlimit:4;stroke-dasharray:none;stroke-dashoffset:0;stroke-opacity:1;color-rendering:auto;image-rendering:auto;shape-rendering:auto;text-rendering:auto;enable-background:accumulate;stop-color:#000000"
       d="m 234.2377,216.4758 c 7.8781,-0.5136 15.2237,-1.1504 22.1661,-1.8831 0.1518,-14.2618 1.6745,-23.9318 4.2644,-28.222 2.732,-4.5254 6.2665,-6.9551 20.2246,-6.9551 13.958,0 17.491,2.4294 20.223,6.9551 2.1251,3.52 3.5301,10.672 4.0515,20.9986 3.5319,-0.6373 7.05,-1.2813 10.5771,-1.929 3.8231,-0.702 7.6691,-1.4055 11.5574,-2.1027 -0.5266,-10.641 -2.1665,-20.0406 -7.2212,-28.4138 -7.114,-11.7843 -21.3709,-17.6583 -39.1878,-17.6583 -17.8169,0 -32.0733,5.874 -39.1873,17.6583 -7.0414,11.6641 -7.4599,25.3211 -7.4678,41.552 z"
       id="path1925" />
    <path
       style="color:#000000;font-style:normal;font-variant:normal;font-weight:normal;font-stretch:normal;font-size:50.8px;line-height:1.25;font-family:sans-serif;font-variant-ligatures:normal;font-variant-position:normal;font-variant-caps:normal;font-variant-numeric:normal;font-variant-alternates:normal;font-variant-east-asian:normal;font-feature-settings:normal;font-variation-settings:normal;text-indent:0;text-align:end;text-decoration:none;text-decoration-line:none;text-decoration-style:solid;text-decoration-color:#000000;letter-spacing:normal;word-spacing:normal;text-transform:none;writing-mode:lr-tb;direction:ltr;text-orientation:mixed;dominant-baseline:auto;baseline-shift:baseline;text-anchor:end;white-space:normal;shape-padding:0;shape-margin:0;inline-size:0;clip-rule:nonzero;display:inline;overflow:visible;visibility:visible;isolation:auto;mix-blend-mode:normal;color-interpolation:sRGB;color-interpolation-filters:linearRGB;solid-color:#000000;solid-opacity:1;vector-effect:none;fill:#b4b4b4;fill-opacity:1;fill-rule:nonzero;stroke:none;stroke-width:0.264999;stroke-linecap:round;stroke-linejoin:miter;stroke-miterlimit:4;stroke-dasharray:none;stroke-dashoffset:0;stroke-opacity:1;color-rendering:auto;image-rendering:auto;shape-rendering:auto;text-rendering:auto;enable-background:accumulate;stop-color:#000000"
       d="m 145.2845,216.7425 c 6.942,0.4021 14.2979,0.7096 22.1522,0.9043 v -34.5339 c 0,-3.4735 -0.2872,-2.1712 2.3083,-3.193 2.5955,-1.0218 7.8698,-1.479 12.1683,-1.479 5.9514,0 24.2616,3.5041 24.2616,3.5041 a 11.0755,11.0755 0 0 0 13.1464,-8.5177 11.0755,11.0755 0 0 0 -8.5173,-13.1445 c 0,0 -16.8007,-3.9939 -28.8907,-3.9939 -4.9007,0 -12.4016,-0.083 -20.283,3.0194 -7.8815,3.1028 -16.3458,12.2798 -16.3458,23.8046 z"
       id="path1921" />
    <path
       style="color:#000000;font-style:normal;font-variant:normal;font-weight:normal;font-stretch:normal;font-size:50.8px;line-height:1.25;font-family:sans-serif;font-variant-ligatures:normal;font-variant-position:normal;font-variant-caps:normal;font-variant-numeric:normal;font-variant-alternates:normal;font-variant-east-asian:normal;font-feature-settings:normal;font-variation-settings:normal;text-indent:0;text-align:end;text-decoration:none;text-decoration-line:none;text-decoration-style:solid;text-decoration-color:#000000;letter-spacing:normal;word-spacing:normal;text-transform:none;writing-mode:lr-tb;direction:ltr;text-orientation:mixed;dominant-baseline:auto;baseline-shift:baseline;text-anchor:end;white-space:normal;shape-padding:0;shape-margin:0;inline-size:0;clip-rule:nonzero;display:inline;overflow:visible;visibility:visible;isolation:auto;mix-blend-mode:normal;color-interpolation:sRGB;color-interpolation-filters:linearRGB;solid-color:#000000;solid-opacity:1;vector-effect:none;fill:#b4b4b4;fill-opacity:1;fill-rule:nonzero;stroke:none;stroke-width:0.264999;stroke-linecap:round;stroke-linejoin:miter;stroke-miterlimit:4;stroke-dasharray:none;stroke-dashoffset:0;stroke-opacity:1;color-rendering:auto;image-rendering:auto;shape-rendering:auto;text-rendering:auto;enable-background:accumulate;stop-color:#000000"
       d="m 21.0626,198.9249 c 7.6784,1.1171 14.9416,2.3222 22.0059,3.561 0.4855,-4.0201 1.2998,-7.9867 2.6221,-11.8472 2.6461,-8.0325 11.9864,-9.9851 19.358,-10.9292 9.7925,-0.9599 19.4854,1.3073 28.4866,5.0845 0,8.8448 -0.01,17.6893 -0.01,26.5338 7.021,1.0684 14.343,2.0582 22.1593,2.9289 0.01,-12.151 0.01,-24.3022 0,-36.453 0,-0.137 0,-0.2735 0,-0.4093 0,-13.6231 -0.018,-27.246 -0.061,-40.8678 -0.4646,-5.5292 -5.4687,-10.0539 -11.0195,-9.9584 -6.5069,-0.1971 -11.888,6.122 -11.0764,12.499 0.01,7.2958 0.01,14.5923 0,21.8884 -6.8329,-2.1648 -13.9384,-3.4602 -21.1021,-3.7118 -16.1882,-0.5385 -34.2137,4.3979 -43.7069,18.4928 -4.5985,7.0559 -6.7133,14.9926 -7.6672,23.1883 z"
       id="path1917" />
    <path
       style="color:#000000;font-style:normal;font-variant:normal;font-weight:normal;font-stretch:normal;font-size:50.8px;line-height:1.25;font-family:sans-serif;font-variant-ligatures:normal;font-variant-position:normal;font-variant-caps:normal;font-variant-numeric:normal;font-variant-alternates:normal;font-variant-east-asian:normal;font-feature-settings:normal;font-variation-settings:normal;text-indent:0;text-align:end;text-decoration:none;text-decoration-line:none;text-decoration-style:solid;text-decoration-color:#000000;letter-spacing:normal;word-spacing:normal;text-transform:none;writing-mode:lr-tb;direction:ltr;text-orientation:mixed;dominant-baseline:auto;baseline-shift:baseline;text-anchor:end;white-space:normal;shape-padding:0;shape-margin:0;inline-size:0;clip-rule:nonzero;display:inline;overflow:visible;visibility:visible;isolation:auto;mix-blend-mode:normal;color-interpolation:sRGB;color-interpolation-filters:linearRGB;solid-color:#000000;solid-opacity:1;vector-effect:none;fill:#b4b4b4;fill-opacity:1;fill-rule:nonzero;stroke:none;stroke-width:0.264999;stroke-linecap:round;stroke-linejoin:miter;stroke-miterlimit:4;stroke-dasharray:none;stroke-dashoffset:0;stroke-opacity:1;color-rendering:auto;image-rendering:auto;shape-rendering:auto;text-rendering:auto;enable-background:accumulate;stop-color:#000000"
       d="m -25.9924,194.0214 c 8.0273,0.5104 15.5316,1.1456 22.6374,1.8727 v -15.6946 c 0,-1.7568 -0.4213,-3.4705 -1.2128,-5.0389 v -0.054 l -0.054,-0.054 0.027,0.081 c -0.9401,-1.8728 -2.3837,-3.4653 -4.1682,-4.5641 0,0 -0.014,0.011 -0.027,0 v -0.027 c -0.01,-0.011 -0.027,0 -0.027,0 -0.597,-0.3622 -1.2181,-0.6514 -1.8727,-0.8972 -0.3107,-0.1215 -0.6311,-0.2501 -0.9499,-0.3432 h -0.027 -0.027 -0.054 c -0.3039,-0.095 -0.6132,-0.1741 -0.9239,-0.2376 h -0.054 -0.027 c -0.3067,-0.054 -0.6284,-0.1079 -0.9499,-0.1349 -0.027,0 -0.054,0 -0.081,0 -0.3202,-0.027 -0.6155,-0.028 -0.9235,-0.028 -0.6767,0 -1.3678,0.069 -2.0314,0.1857 -0.6117,0.1214 -1.2079,0.2805 -1.7941,0.5006 -0.081,0.013 -0.1446,0.041 -0.1851,0.054 h -0.027 l -0.054,0.027 c -0.01,0 -0.027,0.027 -0.027,0.027 l -0.054,0.028 c -0.601,0.2402 -1.1903,0.5302 -1.7415,0.8707 h -0.027 c -0.01,0 -0.027,0.027 -0.027,0.027 l -0.054,0.027 c -0.2553,0.1636 -0.4972,0.3432 -0.739,0.5282 l -0.027,0.027 c -0.01,0 -0.027,0 -0.027,0 l -0.054,0.027 c -0.2553,0.2 -0.502,0.4122 -0.7384,0.6336 -2.3451,2.1379 -3.6913,5.1629 -3.6934,8.3365 0,0 0.01,9.4208 0.015,13.8203 z"
       id="path1913" />
    <path
       style="color:#000000;font-style:normal;font-variant:normal;font-weight:normal;font-stretch:normal;font-size:50.8px;line-height:1.25;font-family:sans-serif;font-variant-ligatures:normal;font-variant-position:normal;font-variant-caps:normal;font-variant-numeric:normal;font-variant-alternates:normal;font-variant-east-asian:normal;font-feature-settings:normal;font-variation-settings:normal;text-indent:0;text-align:end;text-decoration:none;text-decoration-line:none;text-decoration-style:solid;text-decoration-color:#000000;letter-spacing:normal;word-spacing:normal;text-transform:none;writing-mode:lr-tb;direction:ltr;text-orientation:mixed;dominant-baseline:auto;baseline-shift:baseline;text-anchor:end;white-space:normal;shape-padding:0;shape-margin:0;inline-size:0;clip-rule:nonzero;display:inline;overflow:visible;visibility:visible;isolation:auto;mix-blend-mode:normal;color-interpolation:sRGB;color-interpolation-filters:linearRGB;solid-color:#000000;solid-opacity:1;vector-effect:none;fill:#b4b4b4;fill-opacity:1;fill-rule:nonzero;stroke:none;stroke-width:0.264999;stroke-linecap:round;stroke-linejoin:miter;stroke-miterlimit:4;stroke-dasharray:none;stroke-dashoffset:0;stroke-opacity:1;color-rendering:auto;image-rendering:auto;shape-rendering:auto;text-rendering:auto;enable-background:accumulate;stop-color:#000000"
       d="m -94.3432,192.9056 c 6.8484,-0.1809 14.0381,-0.2796 21.6328,-0.2796 0.3098,0 0.6087,0 0.9172,0 -0.08,-7.3028 -0.012,-12.2415 -0.012,-12.2415 0.064,-3.6084 -1.6416,-6.7532 -4.2974,-8.7855 -1.7616,-1.4314 -3.9725,-2.3331 -6.396,-2.4593 l 0.3793,-0.2315 h -0.7452 c -0.041,0 -0.041,0.081 -0.081,0.081 l -0.027,-0.054 -0.3116,0.1871 c -3.2111,0.063 -6.0947,1.4986 -8.0806,3.7518 -1.8003,1.8545 -2.9322,4.3241 -2.9776,7.1411 0,0 -0.081,5.1911 0,12.8902 z"
       id="path1909" />
    <path
       style="color:#000000;font-style:normal;font-variant:normal;font-weight:normal;font-stretch:normal;font-size:50.8px;line-height:1.25;font-family:sans-serif;font-variant-ligatures:normal;font-variant-position:normal;font-variant-caps:normal;font-variant-numeric:normal;font-variant-alternates:normal;font-variant-east-asian:normal;font-feature-settings:normal;font-variation-settings:normal;text-indent:0;text-align:end;text-decoration:none;text-decoration-line:none;text-decoration-style:solid;text-decoration-color:#000000;letter-spacing:normal;word-spacing:normal;text-transform:none;writing-mode:lr-tb;direction:ltr;text-orientation:mixed;dominant-baseline:auto;baseline-shift:baseline;text-anchor:end;white-space:normal;shape-padding:0;shape-margin:0;inline-size:0;clip-rule:nonzero;display:inline;overflow:visible;visibility:visible;isolation:auto;mix-blend-mode:normal;color-interpolation:sRGB;color-interpolation-filters:linearRGB;solid-color:#000000;solid-opacity:1;vector-effect:none;fill:#b4b4b4;fill-opacity:1;fill-rule:nonzero;stroke:none;stroke-width:0.264999;stroke-linecap:round;stroke-linejoin:miter;stroke-miterlimit:4;stroke-dasharray:none;stroke-dashoffset:0;stroke-opacity:1;color-rendering:auto;image-rendering:auto;shape-rendering:auto;text-rendering:auto;enable-background:accumulate;stop-color:#000000"
       d="m -196.7649,126.1438 -0.014,0.01 c -6.2372,0 -11.2934,5.0544 -11.2908,11.2914 v 68.3985 c 6.6295,-1.1888 15.0684,-2.6456 22.641,-3.9145 0.01,-6.7411 0.016,-12.7357 0.036,-16.5013 v -0.054 -1.8992 c 0.095,0 1.1484,0 5.9625,0 6.5135,0 14.7008,0.013 21.2891,1.6092 6.6012,1.5973 10.4937,3.8235 12.6633,8.7053 0.2437,0.5477 0.5012,1.3557 0.7669,2.3736 7.2336,-0.7734 14.8833,-1.4502 23.073,-1.9984 -0.8534,-3.3869 -1.9038,-6.5876 -3.2112,-9.529 -5.6506,-12.7143 -17.5512,-18.9809 -27.9642,-21.5006 -10.4043,-2.5172 -20.4401,-2.2423 -26.6185,-2.2423 h -6.0146 v -23.4527 c 0,-6.2372 -5.0804,-11.294 -11.3177,-11.2913 z"
       id="path980-0-0-7-6-9-3-0-6-0" />
  </g>
</svg>
